<svg width="76" height="76" viewBox="0 0 76 76" fill="none" xmlns="http://www.w3.org/2000/svg">
<path d="M52.25 38C56.62 38 60.135 34.4533 60.135 30.0833C60.135 25.7133 56.62 22.1667 52.25 22.1667C47.88 22.1667 44.3334 25.7133 44.3334 30.0833C44.3334 34.4533 47.88 38 52.25 38ZM28.5 34.8333C33.7567 34.8333 37.9684 30.59 37.9684 25.3333C37.9684 20.0767 33.7567 15.8333 28.5 15.8333C23.2434 15.8333 19 20.0767 19 25.3333C19 30.59 23.2434 34.8333 28.5 34.8333ZM52.25 44.3333C46.455 44.3333 34.8334 47.2467 34.8334 53.0417V60.1667H69.6667V53.0417C69.6667 47.2467 58.045 44.3333 52.25 44.3333ZM28.5 41.1667C21.1217 41.1667 6.33337 44.8717 6.33337 52.25V60.1667H28.5V53.0417C28.5 50.35 29.545 45.6317 36.005 42.0533C33.25 41.4833 30.59 41.1667 28.5 41.1667Z" fill="#5A5A5A"/>
</svg>
