<svg width="696" height="418" viewBox="0 0 696 418" fill="none" xmlns="http://www.w3.org/2000/svg">
<path d="M48.1147 392.223L89.1631 333.333L48.0939 398.629L48.0699 405.329C45.1427 405.305 42.245 405.209 39.3769 405.044C39.3638 403.523 42.8527 319.816 42.7044 318.302C42.9069 318.244 43.0205 310.385 43.1008 310.041L0.217285 245.687L43.1469 303.95L43.2749 305.672L45.8217 240.638L8.95868 174.04L46.1133 229.21C46.1271 228.326 47.8718 94.7947 47.889 93.9707C47.8995 94.4084 48.7003 200.235 48.7062 200.681L83.9613 158.084L48.6724 209.834L48.4921 268.04L81.2085 211.754C40.3788 293.838 49.4146 265.114 48.3718 308.962L95.8944 230.589L48.3311 320.253L48.1147 392.223Z" fill="#D0CDE1"/>
<path d="M676.089 400.218L693.195 375.677L676.08 402.888L676.07 405.68C674.85 405.669 673.643 405.63 672.448 405.561C672.442 404.927 673.896 370.044 673.834 369.413C673.919 369.389 673.966 366.114 674 365.971L656.129 339.153L674.019 363.433L674.072 364.15L675.133 337.049L659.772 309.296L675.255 332.287C675.261 331.918 675.988 276.272 675.995 275.929C675.999 276.111 676.333 320.212 676.335 320.398L691.027 302.647L676.321 324.212L676.246 348.468L689.88 325.012C672.865 359.219 676.631 347.249 676.196 365.521L696 332.861L676.179 370.226L676.089 400.218Z" fill="#D0CDE1"/>
<path d="M346.862 418C538.429 418 693.725 411.925 693.725 404.431C693.725 396.936 538.429 390.861 346.862 390.861C155.296 390.861 0 396.936 0 404.431C0 411.925 155.296 418 346.862 418Z" fill="#D0CDE1"/>
<path d="M515.117 160.267H119.072V396.032H515.117V160.267Z" fill="#3F3D56"/>
<path d="M217.087 160.267C216.682 185.077 206.528 208.733 188.815 226.136C171.102 243.538 147.248 253.292 122.398 253.295C121.285 253.295 120.179 253.276 119.072 253.237V160.267H217.087Z" fill="#6C63FF"/>
<path d="M336.468 396.031H298.8C300.217 392.183 302.783 388.861 306.151 386.514C309.519 384.168 313.527 382.91 317.634 382.91C321.741 382.91 325.749 384.168 329.116 386.514C332.484 388.861 335.05 392.183 336.468 396.031Z" fill="#6C63FF"/>
<path d="M515.117 274.082V353.495C504.906 352.996 495.279 348.596 488.229 341.204C481.179 333.812 477.246 323.996 477.246 313.788C477.246 303.581 481.179 293.765 488.229 286.373C495.279 278.981 504.906 274.58 515.117 274.082Z" fill="#6C63FF"/>
<path d="M442.36 245.938H192.515C186.071 245.938 180.847 251.154 180.847 257.589V257.589C180.847 264.024 186.071 269.24 192.515 269.24H442.36C448.804 269.24 454.028 264.024 454.028 257.589C454.028 251.154 448.804 245.938 442.36 245.938Z" fill="white"/>
<path d="M442.36 291.857H192.515C186.071 291.857 180.847 297.073 180.847 303.508V303.508C180.847 309.942 186.071 315.159 192.515 315.159H442.36C448.804 315.159 454.028 309.942 454.028 303.508C454.028 297.073 448.804 291.857 442.36 291.857Z" fill="white"/>
<path d="M442.36 337.775H369.919C363.474 337.775 358.25 342.992 358.25 349.426C358.25 355.861 363.474 361.078 369.919 361.078H442.36C448.804 361.078 454.028 355.861 454.028 349.426C454.028 342.992 448.804 337.775 442.36 337.775Z" fill="white"/>
<path d="M577.922 72.4472C577.922 72.4472 588.812 76.676 589.417 90.5706C590.022 104.465 586.392 143.129 586.392 143.129C586.392 143.129 599.703 162.46 589.417 167.897C579.132 173.334 577.922 146.149 577.922 146.149L565.821 88.7582C565.821 88.7582 573.082 71.8431 577.922 72.4472Z" fill="#A0616A"/>
<path d="M466.598 117.152C466.598 117.152 440.582 134.067 439.372 120.776C438.162 107.486 447.237 55.532 447.237 55.532C447.237 55.532 448.447 33.1797 461.152 38.6168C473.858 44.0538 457.522 62.7814 457.522 62.7814L459.337 105.069L471.438 104.465L466.598 117.152Z" fill="#A0616A"/>
<path d="M508.344 132.859C508.344 132.859 428.481 103.257 432.716 137.691C436.951 172.126 457.522 215.622 457.522 215.622L464.783 227.1H479.908L470.228 164.877C470.228 164.877 504.714 184.208 514.999 181.188C514.999 181.188 528.31 269.992 533.15 276.638C537.99 283.283 546.461 363.63 546.461 363.63L554.326 373.296H569.451V237.37C569.451 237.37 595.467 152.794 575.502 148.566C555.536 144.337 508.344 132.859 508.344 132.859Z" fill="#2F2E41"/>
<path d="M462.967 219.247C462.967 219.247 459.337 212.602 453.287 219.247C447.237 225.892 432.716 233.746 432.716 233.746C432.716 233.746 401.255 240.995 426.666 247.036C452.077 253.077 455.102 247.036 455.102 247.036C455.102 247.036 459.337 248.244 462.967 249.453C466.598 250.661 490.193 246.432 490.193 242.807C490.193 239.183 482.183 217.521 478.928 220.8C475.673 224.08 462.967 219.247 462.967 219.247Z" fill="#2F2E41"/>
<path d="M555.485 367.316C555.485 367.316 546.564 359.981 544.465 362.077C542.366 364.172 531.347 378.319 531.347 378.319C531.347 378.319 501.961 400.85 528.723 404.518C555.485 408.185 553.911 398.23 553.911 398.23H562.307C563.357 398.23 577.525 391.943 577 389.323C576.475 386.703 570.178 365.34 568.079 366.852C565.98 368.364 555.485 367.316 555.485 367.316Z" fill="#2F2E41"/>
<path d="M474.463 49.4908C485.824 49.4908 495.034 40.2948 495.034 28.951C495.034 17.6071 485.824 8.41108 474.463 8.41108C463.102 8.41108 453.892 17.6071 453.892 28.951C453.892 40.2948 463.102 49.4908 474.463 49.4908Z" fill="#A0616A"/>
<path d="M488.983 26.5345C488.983 26.5345 504.714 39.825 515.604 39.825C526.495 39.825 499.874 64.5937 499.874 64.5937L476.278 43.4497L488.983 26.5345Z" fill="#A0616A"/>
<path d="M495.034 64.5937L494.563 59.8343C494.563 59.8343 506.529 38.6168 510.159 36.8044C513.789 34.9921 516.209 34.9921 516.209 34.9921C516.209 34.9921 528.31 22.3057 541.62 28.951C554.931 35.5962 586.392 77.8842 586.392 77.8842C586.392 77.8842 564.006 79.6965 567.031 97.2159C567.031 97.2159 589.417 154.607 583.367 155.211C577.317 155.815 559.166 151.586 540.41 160.044C521.655 168.501 513.184 163.064 513.184 163.064L503.504 131.65C503.504 131.65 485.353 121.38 485.958 112.319L459.64 124.099L462.06 101.747L478.093 83.3212C478.093 83.3212 475.068 80.9048 495.034 64.5937Z" fill="#575A89"/>
<path d="M455.541 31.1716C454.723 32.0788 453.698 32.7756 452.553 33.2029C451.382 33.5328 449.906 33.1282 449.439 32.0057L450.308 30.8753L447.701 29.2574L448.837 27.9262L446.737 25.6489L448.395 24.3357L445.238 22.0819C449.329 15.4169 453.753 8.66859 460.211 4.2504C466.669 -0.167795 475.693 -1.73773 482.309 2.44128C485.744 4.61096 488.173 8.05461 490.119 11.6179C494.032 18.7839 497.481 25.7692 497.99 33.9153C495.532 31.5254 491.944 30.1786 489.486 27.7886C488.397 26.6354 487.164 25.6275 485.817 24.79C483.246 23.3424 480.17 23.2144 477.292 22.5614C474.872 22.0123 473.302 20.9231 471.471 19.3661C469.293 17.5138 469.204 18.23 467.005 20.3155C463.186 23.9367 459.364 27.5554 455.541 31.1716Z" fill="#2F2E41"/>
</svg>
