<svg width="50" height="50" viewBox="0 0 50 50" fill="none" xmlns="http://www.w3.org/2000/svg">
<path d="M21.4584 16.0417C20.6459 16.8542 20.6459 18.1458 21.4584 18.9583L25.4167 22.9167H6.25008C5.10425 22.9167 4.16675 23.8542 4.16675 25C4.16675 26.1458 5.10425 27.0833 6.25008 27.0833H25.4167L21.4584 31.0417C20.6459 31.8542 20.6459 33.1458 21.4584 33.9583C22.2709 34.7708 23.5626 34.7708 24.3751 33.9583L31.8543 26.4792C32.6668 25.6667 32.6668 24.3542 31.8543 23.5417L24.3751 16.0417C23.5626 15.2292 22.2709 15.2292 21.4584 16.0417ZM41.6668 39.5833H27.0834C25.9376 39.5833 25.0001 40.5208 25.0001 41.6667C25.0001 42.8125 25.9376 43.75 27.0834 43.75H41.6668C43.9584 43.75 45.8334 41.875 45.8334 39.5833V10.4167C45.8334 8.125 43.9584 6.25 41.6668 6.25H27.0834C25.9376 6.25 25.0001 7.1875 25.0001 8.33333C25.0001 9.47917 25.9376 10.4167 27.0834 10.4167H41.6668V39.5833Z" fill="white"/>
</svg>
